<?xml version="1.0" encoding="iso-8859-1"?>
<!-- Generator: Adobe Illustrator 19.0.0, SVG Export Plug-In . SVG Version: 6.00 Build 0)  -->
<svg version="1.1" id="Layer_1" xmlns="http://www.w3.org/2000/svg" xmlns:xlink="http://www.w3.org/1999/xlink" x="0px" y="0px"
	 viewBox="0 0 511.962 511.962" style="enable-background:new 0 0 511.962 511.962;" xml:space="preserve">
<polygon style="fill:#2C3E50;" points="94.231,206.872 87.919,201.952 209.655,45.864 375.167,147.216 370.999,154.048 
	211.575,56.416 "/>
<circle style="fill:#415E72;" cx="212.735" cy="62.336" r="34.232"/>
<circle style="fill:#517A91;" cx="212.735" cy="62.336" r="17.84"/>
<rect x="22.182" y="161.515" transform="matrix(0.9823 -0.1873 0.1873 0.9823 -52.0411 53.2906)" style="fill:#E04F5F;" width="467.599" height="281.039"/>
<g>
	<path style="fill:#FFFFFF;" d="M111.999,358.704c7.84,2.592,16.208,3.168,24.328,1.68c11.2-2.144,16.48-8.584,14.984-16.4
		c-1.384-7.248-7.024-10.592-20.088-12.664c-16.856-2.68-28.536-9.136-31.2-22.912c-2.976-15.632,7.824-30.064,28.56-34.016
		c7.904-1.736,16.104-1.592,23.936,0.44l-1.6,14.88c-6.464-1.928-13.296-2.24-19.904-0.92c-11.08,2.12-14.784,9.008-13.728,14.544
		c1.416,7.384,7.608,9.752,21.344,12.272c17.824,3.096,27.512,9.92,30.152,23.712c2.92,15.344-6.176,30.912-30.904,35.632
		c-8.952,1.792-18.208,1.432-27-1.04L111.999,358.704z"/>
	<path style="fill:#FFFFFF;" d="M203.815,332.76l-3.064,28.712l-18.048,3.44l12.408-101.592l22.304-4.248l49.384,89.832
		l-18.752,3.576l-13.84-25.488L203.815,332.76z M228.711,314.36l-12-22.16c-2.968-5.472-5.776-11.712-8.248-16.984l-0.28,0.056
		c-0.368,5.824-0.512,12.76-1.136,18.776l-2.896,25L228.711,314.36z"/>
	<path style="fill:#FFFFFF;" d="M261.919,250.584l17.48-3.336l15.472,81.136l39.368-7.496l2.792,14.64l-56.856,10.832
		L261.919,250.584z"/>
	<path style="fill:#FFFFFF;" d="M395.711,280.296l-36.096,6.88l5.36,28.136l40.36-7.696l2.736,14.352L350.239,333l-18.264-95.776
		l55.696-10.624l2.744,14.352l-38.224,7.288l4.712,24.72l36.096-6.88L395.711,280.296z"/>
</g>
<g>
</g>
<g>
</g>
<g>
</g>
<g>
</g>
<g>
</g>
<g>
</g>
<g>
</g>
<g>
</g>
<g>
</g>
<g>
</g>
<g>
</g>
<g>
</g>
<g>
</g>
<g>
</g>
<g>
</g>
</svg>
